<?xml version="1.0" encoding="utf-8"?>
<!-- Generator: Adobe Illustrator 15.0.0, SVG Export Plug-In . SVG Version: 6.00 Build 0)  -->
<!DOCTYPE svg PUBLIC "-//W3C//DTD SVG 1.1//EN" "http://www.w3.org/Graphics/SVG/1.1/DTD/svg11.dtd">
<svg version="1.1" id="Layer_1" xmlns="http://www.w3.org/2000/svg" xmlns:xlink="http://www.w3.org/1999/xlink" x="0px" y="0px"
	 width="400px" height="400px" viewBox="0 0 400 400" enable-background="new 0 0 400 400" xml:space="preserve">
<g>
	<path fill="#01536E" d="M200.194,347.655c-32.787,0-63.235-10.967-85.735-30.881c-20.16-17.845-32.537-41.284-35.281-66.56
		l-13.336,3.705l24.621-41.507l24.362,40.373l-11.954-2.657c5.128,39.725,40.06,70.231,84.717,73.646V200.442H132.74v-22.411h54.848
		v-42.152c-18.332-3.235-31.627-20.001-31.627-40.9c0-23.508,19.125-42.633,42.632-42.633c23.508,0,42.633,19.125,42.633,42.633
		c0,20.393-12.693,37.385-29.66,40.829l-0.327,42.224h55.609v22.411h-55.648v123.413c45.458-2.744,81.029-33.349,86.294-73.844
		l-12.54,3.301l24.571-41.423l24.634,42.229l-12.957-3.812c-2.765,25.239-15.137,48.645-35.272,66.467
		C263.43,336.688,232.981,347.655,200.194,347.655z M198.593,74.356c-11.179,0-20.622,9.444-20.622,20.622
		c0,11.179,9.443,20.622,20.622,20.622s20.622-9.443,20.622-20.622C219.215,83.8,209.771,74.356,198.593,74.356z"/>
</g>
</svg>
