<?xml version="1.0" encoding="UTF-8" standalone="no"?>
<!-- Generator: Adobe Illustrator 15.0.0, SVG Export Plug-In . SVG Version: 6.00 Build 0)  -->

<svg
   xmlns:dc="http://purl.org/dc/elements/1.1/"
   xmlns:cc="http://creativecommons.org/ns#"
   xmlns:rdf="http://www.w3.org/1999/02/22-rdf-syntax-ns#"
   xmlns:svg="http://www.w3.org/2000/svg"
   xmlns="http://www.w3.org/2000/svg"
   xmlns:sodipodi="http://sodipodi.sourceforge.net/DTD/sodipodi-0.dtd"
   xmlns:inkscape="http://www.inkscape.org/namespaces/inkscape"
   version="1.1"
   id="Layer_1"
   x="0px"
   y="0px"
   width="125"
   height="75"
   viewBox="-146.5 51.5 125 75.000002"
   enable-background="new -146.5 51.5 670 361.667"
   xml:space="preserve"
   inkscape:version="0.48.4 r9939"
   sodipodi:docname="DONATE 01.svg"><metadata
     id="metadata3093"><rdf:RDF><cc:Work
         rdf:about=""><dc:format>image/svg+xml</dc:format><dc:type
           rdf:resource="http://purl.org/dc/dcmitype/StillImage" /></cc:Work></rdf:RDF></metadata><defs
     id="defs3091" /><sodipodi:namedview
     pagecolor="#ffffff"
     bordercolor="#666666"
     borderopacity="1"
     objecttolerance="10"
     gridtolerance="10"
     guidetolerance="10"
     inkscape:pageopacity="0"
     inkscape:pageshadow="2"
     inkscape:window-width="1229"
     inkscape:window-height="697"
     id="namedview3089"
     showgrid="false"
     inkscape:zoom="1"
     inkscape:cx="335"
     inkscape:cy="180.8335"
     inkscape:window-x="583"
     inkscape:window-y="118"
     inkscape:window-maximized="0"
     inkscape:current-layer="Layer_1" /><g
     id="g3067"
     style="fill:#ffffff"
     transform="matrix(0.25946244,0,0,0.24775931,-127.83429,34.590897)"><path
       d="m 276.361,135.129 c 3.854,-4.02 6.722,-8.743 8.483,-13.875 -26.848,0 -53.326,0 -71.651,0 1.71,4.981 4.458,9.587 8.13,13.522 l -0.377,0.353 h 55.415 z"
       id="path3069"
       style="fill:#ffffff"
       inkscape:connector-curvature="0" /><path
       d="m 388.379,121.254 c -1.776,0 -49.393,0 -97.657,0 -1.469,4.993 -3.832,9.684 -7.009,13.875 h 20.434 v 6.157 H 193.888 v -6.157 h 20.438 c -3.17,-4.19 -5.531,-8.887 -7.003,-13.875 -11.431,0 -18.473,0 -18.473,0 0,0 -23.786,0 -29.663,0 -5.877,0 -30.223,3.241 -39.738,8.278 -9.515,5.037 -104.102,74.997 -111.658,81.434 -7.555,6.437 -20.428,14.832 -33.301,14.832 -12.873,0 -20.708,-15.392 -21.828,-22.107 -1.12,-6.716 1.747,-19.959 13.712,-24.347 8.395,-3.078 19.029,-1.958 33.861,-2.519 14.832,-0.56 38.338,-6.996 47.293,-14.552 8.955,-7.556 17.63,-14.552 24.626,-20.988 6.996,-6.437 13.396,-10.405 16.511,-12.593 5.177,-3.638 9.235,-7.438 -6.996,-7.438 -16.231,0 -72.479,0 -89.83,0 -17.351,0 -36.939,0 -42.256,0 -5.317,0 -13.522,3.801 -13.522,17.513 0,13.712 0,136.003 0,144.958 0,8.955 2.329,16.953 21.638,16.953 19.309,0 163.988,0 163.988,0 0,0 228.632,0 241.224,0 12.594,0 20.989,0 29.664,0 8.675,0 14.361,-6.04 14.361,-14.994 0,-8.955 0,-145.798 0,-151.955 0.002,-12.475 -14.92,-12.475 -18.557,-12.475 z m -40.578,160.792 c -3.245,0 -5.877,-2.631 -5.877,-5.876 0,-3.246 2.632,-5.877 5.877,-5.877 3.246,0 5.877,2.631 5.877,5.877 0,3.245 -2.631,5.876 -5.877,5.876 z"
       id="path3071"
       style="fill:#ffffff"
       inkscape:connector-curvature="0" /></g><path
     d="m -56.104336,68.070367 c 1.699997,-1.6922 2.744853,-3.98942 2.744853,-6.51954 0,-5.20196 -4.416311,-9.41882 -9.863724,-9.41882 -5.447674,0 -9.863984,4.21711 -9.863984,9.41882 0,2.53012 1.044596,4.82734 2.745112,6.51954 h 14.237743 z"
     id="path3073"
     style="fill:#ffffff"
     inkscape:connector-curvature="0" /><g
     id="g3075"
     style="fill:#ffffff"
     transform="matrix(0.25946244,0,0,0.24775931,-127.83429,34.590897)"><path
       d="m -64.594,313.09 h 46.863 c 20.05,0 30.92,7.811 30.92,28.746 0,10.87 -9.179,28.746 -32.369,28.746 H -64.594 V 313.09 z m 29.069,39.938 h 6.603 c 6.925,0 11.515,-3.543 11.515,-11.111 0,-5.959 -2.416,-9.1 -10.227,-9.1 h -7.891 v 20.211 z"
       id="path3077"
       style="fill:#ffffff"
       inkscape:connector-curvature="0" /><path
       d="m 19.467,340.226 c 0,-22.546 18.762,-28.826 39.697,-28.826 20.936,0 39.697,6.28 39.697,28.826 0,13.205 -2.979,32.048 -39.697,32.048 -36.718,0 -39.697,-18.843 -39.697,-32.048 z m 49.52,2.335 c 0,-7.327 -2.577,-12.158 -9.824,-12.158 -7.247,0 -9.823,4.831 -9.823,12.158 0,7.328 2.577,12.159 9.823,12.159 7.248,0 9.824,-4.831 9.824,-12.159 z"
       id="path3079"
       style="fill:#ffffff"
       inkscape:connector-curvature="0" /><path
       d="m 108.198,313.09 h 29.148 l 16.667,23.996 h 0.161 V 313.09 h 27.296 v 57.492 h -25.605 l -20.21,-26.089 h -0.161 v 26.089 H 108.198 V 313.09 z"
       id="path3081"
       style="fill:#ffffff"
       inkscape:connector-curvature="0" /><path
       d="m 206.27,313.09 h 46.058 l 18.52,57.492 h -30.034 l -1.852,-7.327 h -19.245 l -2.174,7.327 H 187.912 L 206.27,313.09 z m 23.028,13.367 h -0.241 l -6.039,21.016 h 12.48 l -6.2,-21.016 z"
       id="path3083"
       style="fill:#ffffff"
       inkscape:connector-curvature="0" /><path
       d="m 287.522,335.717 h -17.07 V 313.09 h 63.209 v 22.627 h -17.07 v 34.865 h -29.068 v -34.865 z"
       id="path3085"
       style="fill:#ffffff"
       inkscape:connector-curvature="0" /><path
       d="m 341.227,313.09 h 64.9 v 18.198 h -35.832 v 5.476 h 35.832 v 13.366 h -35.832 v 5.395 h 35.832 v 15.058 h -64.9 V 313.09 z"
       id="path3087"
       style="fill:#ffffff"
       inkscape:connector-curvature="0" /></g></svg>