<?xml version="1.0" encoding="utf-8"?>
<!-- Generator: Adobe Illustrator 15.0.0, SVG Export Plug-In . SVG Version: 6.00 Build 0)  -->
<!DOCTYPE svg PUBLIC "-//W3C//DTD SVG 1.1//EN" "http://www.w3.org/Graphics/SVG/1.1/DTD/svg11.dtd">
<svg version="1.1" id="Layer_1" xmlns="http://www.w3.org/2000/svg" xmlns:xlink="http://www.w3.org/1999/xlink" x="0px" y="0px"
	 width="638.968px" height="403.48px" viewBox="0 0 638.968 403.48" enable-background="new 0 0 638.968 403.48"
	 xml:space="preserve">
<g>
	<defs>
		<rect id="SVGID_1_" x="40.453" y="196.25" width="566.87" height="137.295"/>
	</defs>
	<clipPath id="SVGID_2_">
		<use xlink:href="#SVGID_1_"  overflow="visible"/>
	</clipPath>
	<path clip-path="url(#SVGID_2_)" fill-rule="evenodd" clip-rule="evenodd" fill="#1F9BD7" d="M89.859,228.578h38.745
		c20.799,0,28.632,10.529,27.422,26.023c-1.994,25.543-17.438,39.667-37.922,39.667h-10.342c-2.807,0-4.696,1.855-5.46,6.9
		l-4.437,29.281c-0.288,1.902-1.288,3.02-2.792,3.154H70.779c-2.285,0-3.099-1.748-2.501-5.537l14.836-93.934
		C83.708,230.37,85.768,228.578,89.859,228.578"/>
	<path clip-path="url(#SVGID_2_)" fill-rule="evenodd" clip-rule="evenodd" fill="#243E80" d="M258.05,226.84
		c13.074,0,25.133,7.088,23.482,24.764c-1.957,20.954-13.25,32.624-31.012,32.672h-15.494c-2.234,0-3.307,1.815-3.894,5.554
		l-2.99,19.07c-0.451,2.879-1.926,4.301-4.114,4.301h-14.429c-2.302,0-3.104-1.471-2.592-4.758l11.928-76.445
		c0.587-3.759,2.025-5.158,4.574-5.158H258.05 M234.545,267.762l11.754,0.002c7.347-0.277,12.233-5.366,12.724-14.549
		c0.304-5.671-3.525-9.727-9.622-9.699l-11.065,0.05L234.545,267.762z M320.756,307.342c1.317-1.195,2.664-1.822,2.468-0.344
		l-0.469,3.545c-0.244,1.844,0.491,2.832,2.215,2.832h12.817c2.156,0,3.211-0.875,3.742-4.213l7.9-49.581
		c0.396-2.492-0.206-3.713-2.1-3.713h-14.094c-1.271,0-1.886,0.713-2.219,2.654l-0.523,3.053c-0.271,1.592-1.001,1.868-1.679,0.265
		c-2.393-5.664-8.493-8.203-17.046-8.027c-19.773,0.407-33.105,15.418-34.53,34.658c-1.102,14.885,9.565,26.572,23.619,26.572
		C311.058,315.043,315.62,312.002,320.756,307.342z M310.029,299.725c-8.511,0-14.444-6.787-13.206-15.111
		c1.238-8.324,9.191-15.111,17.701-15.111c8.512,0,14.445,6.787,13.206,15.111C326.492,292.938,318.54,299.725,310.029,299.725z
		 M374.533,255.708h-12.95c-2.685,0-3.774,1.964-2.922,4.462l16.14,47.264l-15.904,22.48c-1.327,1.875-0.303,3.592,1.57,3.592
		h14.611c2.183,0,3.245-0.557,4.344-2.131l49.637-71.205c1.529-2.193,0.807-4.488-1.699-4.491l-13.814-0.014
		c-2.371-0.002-3.323,0.935-4.686,2.91l-20.704,30.036l-9.211-30.089C378.377,256.667,377.023,255.708,374.533,255.708z"/>
	<path clip-path="url(#SVGID_2_)" fill-rule="evenodd" clip-rule="evenodd" fill="#1F9BD7" d="M480.717,226.84
		c13.074,0,25.133,7.088,23.481,24.764c-1.957,20.954-13.25,32.624-31.012,32.672h-15.494c-2.233,0-3.307,1.815-3.893,5.554
		l-2.99,19.07c-0.452,2.879-1.927,4.301-4.115,4.301h-14.429c-2.301,0-3.104-1.471-2.591-4.758l11.927-76.445
		c0.587-3.759,2.025-5.158,4.574-5.158H480.717 M457.212,267.762l11.754,0.002c7.347-0.277,12.233-5.366,12.725-14.549
		c0.303-5.671-3.525-9.727-9.623-9.699l-11.063,0.05L457.212,267.762z M543.423,307.342c1.316-1.195,2.663-1.822,2.468-0.344
		l-0.469,3.545c-0.244,1.844,0.492,2.832,2.215,2.832h12.818c2.155,0,3.211-0.875,3.741-4.213l7.9-49.581
		c0.396-2.492-0.206-3.713-2.099-3.713h-14.094c-1.271,0-1.887,0.713-2.22,2.654l-0.523,3.053c-0.271,1.592-1.001,1.868-1.679,0.265
		c-2.393-5.664-8.492-8.203-17.046-8.027c-19.772,0.407-33.104,15.418-34.53,34.658c-1.102,14.885,9.566,26.572,23.619,26.572
		C533.725,315.043,538.287,312.002,543.423,307.342z M532.696,299.725c-8.511,0-14.442-6.787-13.206-15.111
		c1.239-8.324,9.191-15.111,17.702-15.111s14.444,6.787,13.205,15.111C549.159,292.938,541.208,299.725,532.696,299.725z
		 M591.826,313.463H577.03c-1.175,0-1.99-0.92-1.812-2.045l13.011-82.357c0.178-1.125,1.286-2.047,2.461-2.047h14.795
		c1.176,0,1.992,0.922,1.815,2.047l-13.013,82.357C594.108,312.543,593.002,313.463,591.826,313.463z"/>
	<path clip-path="url(#SVGID_2_)" fill-rule="evenodd" clip-rule="evenodd" fill="#243E80" d="M65.638,196.25h38.782
		c10.924,0,23.878,0.354,32.545,7.998c5.789,5.106,8.827,13.241,8.126,21.974c-2.378,29.614-20.093,46.2-43.846,46.2H82.117
		c-3.256,0-5.414,2.157-6.332,8l-5.337,33.955c-0.347,2.203-1.302,3.502-3.045,3.658h-23.89c-2.651,0-3.594-2.027-2.9-6.42
		l17.203-108.922C58.505,198.329,60.893,196.25,65.638,196.25"/>
</g>
<path fill-rule="evenodd" clip-rule="evenodd" fill="#28316E" d="M76.341,276.999l6.773-42.866c0.594-3.765,2.654-5.556,6.745-5.556
	h38.745c6.413,0,11.595,1,15.657,2.845c-3.893,26.356-20.94,41-43.264,41H81.87C79.352,272.423,77.471,273.71,76.341,276.999"/>
<g>
	<path fill="#07536E" d="M40.453,50.704h60c25.67,0,39.588,10,39.588,36.805c0,13.917-11.752,36.804-41.443,36.804H40.453V50.704z
		 M77.67,101.838h8.454c8.866,0,14.742-4.535,14.742-14.226c0-7.629-3.093-11.649-13.093-11.649H77.67V101.838z"/>
	<path fill="#07536E" d="M193.232,59.776c24.124,0,43.917,5.258,43.917,33.299c0,28.145-19.794,33.402-43.917,33.402
		c-24.228,0-44.021-5.258-44.021-33.402C149.211,65.034,169.005,59.776,193.232,59.776z M193.232,107.2
		c8.453,0,11.134-4.949,11.134-12.99c0-8.042-2.681-12.887-11.134-12.887c-8.557,0-11.238,4.846-11.238,12.887
		C181.995,102.251,184.675,107.2,193.232,107.2z"/>
	<path fill="#07536E" d="M248.69,61.941h32.268v12.166h0.206c6.186-8.248,14.331-13.093,27.835-13.093
		c12.783,0,27.938,2.989,27.938,23.299v40h-34.949v-28.97c0-7.525-2.989-10-8.969-10c-5.772,0-9.381,2.475-9.381,7.938v31.032
		H248.69V61.941z"/>
	<path fill="#07536E" d="M401.985,116.994h-0.207c-3.918,7.628-14.227,9.484-22.474,9.484c-22.784,0-32.784-11.238-32.784-32.887
		c0-20.721,9.072-32.577,31.34-32.577c9.691,0,18.351,2.165,23.918,10.309h0.207v-9.382h34.02v62.372h-34.02V116.994z
		 M380.542,96.271c0,8.556,3.917,12.165,11.236,12.165c7.32,0,11.237-3.608,11.237-12.165c0-9.072-3.917-12.784-11.237-12.784
		C384.458,83.487,380.542,87.2,380.542,96.271z"/>
	<path fill="#07536E" d="M453.215,86.478h-10.722V74.828c9.381-7.629,18.557-15.877,26.082-24.125h20.207v12.475h24.329v23.299
		h-23.608v15.051c0,5.155,4.125,5.671,8.351,5.671c3.402,0,8.763-0.516,11.753-1.237l-4.433,18.042
		c-6.082,1.133-16.186,2.474-28.558,2.474c-17.01,0-23.401-3.711-23.401-15.773V86.478z"/>
	<path fill="#07536E" d="M558.159,100.499c0,7.731,6.186,8.866,15.361,8.866c8.763,0,20-2.371,33.402-5.154l-7.217,17.113
		c-13.196,3.299-26.907,5.155-36.495,5.155c-24.123,0-42.268-5.876-42.268-32.062c0-22.166,15.051-34.64,42.268-34.64
		c35.567,0,44.124,10.309,44.124,35.257v5.465H558.159z M578.261,85.446c0-6.495-2.886-9.794-10.206-9.794
		c-6.7,0-10.927,2.681-11.34,9.794H578.261z"/>
</g>
<polygon fill="#07536E" points="249.5,154.32 402.726,154.32 389.381,171.836 402.726,190.25 249.5,190.25 262.844,171.836 "/>
<text transform="matrix(1 0 0 1 279.8579 182.3423)" fill="#FFFFFF" font-family="'GalliardITCItOStyCC'" font-size="29.6826">WITH</text>
</svg>
