<?xml version="1.0" encoding="utf-8"?>
<!-- Generator: Adobe Illustrator 15.0.0, SVG Export Plug-In . SVG Version: 6.00 Build 0)  -->
<!DOCTYPE svg PUBLIC "-//W3C//DTD SVG 1.1//EN" "http://www.w3.org/Graphics/SVG/1.1/DTD/svg11.dtd">
<svg version="1.1" id="Layer_1" xmlns="http://www.w3.org/2000/svg" xmlns:xlink="http://www.w3.org/1999/xlink" x="0px" y="0px"
	 width="638.968px" height="403.48px" viewBox="0 0 638.968 403.48" enable-background="new 0 0 638.968 403.48"
	 xml:space="preserve">
<polygon fill="#01526D" points="270.572,340.52 258.139,357.678 400.903,357.678 388.47,340.52 400.903,324.202 258.139,324.202 "/>
<text transform="matrix(1 0 0 1 50.4512 245.9883)"><tspan x="0" y="0" fill="#F05138" font-family="'AntiqueOlive-Compact'" font-size="82.2027">MOB</tspan><tspan x="221.536" y="0" fill="#F05138" font-family="'AntiqueOlive-Compact'" font-size="82.2027" letter-spacing="-6">Y</tspan><tspan x="278.83" y="0" fill="#F05138" font-family="'AntiqueOlive-Compact'" font-size="82.2027">-DICK</tspan></text>
<text transform="matrix(1 0 0 1 50.4512 124)" fill="#07536E" font-family="'AntiqueOlive-Compact'" font-size="83.1062">DONATE TO</text>
<text transform="matrix(1 0 0 1 50.4512 311.5864)"><tspan x="0" y="0" fill="#03A3D8" font-family="'AntiqueOlive-Compact'" font-size="82.2027">M</tspan><tspan x="84.75" y="0" fill="#03A3D8" font-family="'AntiqueOlive-Compact'" font-size="82.2027">A</tspan><tspan x="153.718" y="0" fill="#03A3D8" font-family="'AntiqueOlive-Compact'" font-size="82.2027">R</tspan><tspan x="222.604" y="0" fill="#03A3D8" font-family="'AntiqueOlive-Compact'" font-size="82.2027" letter-spacing="-4">A</tspan><tspan x="287.133" y="0" fill="#03A3D8" font-family="'AntiqueOlive-Compact'" font-size="82.2027">T</tspan><tspan x="345.66" y="0" fill="#03A3D8" font-family="'AntiqueOlive-Compact'" font-size="82.2027">HO</tspan><tspan x="483.431" y="0" fill="#03A3D8" font-family="'AntiqueOlive-Compact'" font-size="82.2027">N</tspan></text>
<text transform="matrix(1 0 0 1 298.5435 350.6362)"><tspan x="0" y="0" fill="#FFFFFF" font-family="'Galliard-BlackItalic'" font-size="27.6473">NY</tspan><tspan x="43.654" y="0" fill="#FFFFFF" font-family="'Galliard-BlackItalic'" font-size="27.6473">C</tspan></text>
<path fill="#07536E" d="M572.003,150.813c0,0-104.083-0.984-118.833-0.984s-109.109,0.984-109.109,0.984v-3.938
	c0,0,128.276,0,165.609,0s62.333,0,62.333,0V150.813z"/>
<polygon fill="#07536E" points="344.061,154.845 63.673,154.845 57.003,152.344 57.003,145.345 63.004,142.845 344.061,142.845 
	349.061,148.845 "/>
<path fill="#07536E" d="M572.003,150.345h25.667c0,0,1.467-0.923,0-1.5c-2.818-1.11-7.25-0.333-13.833-5.083
	c-5.66-4.084-7.897-4.889-7.897-4.889s-2.679-2.02-2.104-0.528s2.668,6.917,2.668,6.917s-15-4-19-7s3.166,10.583,3.166,10.583"/>
</svg>
