<?xml version="1.0" encoding="utf-8"?>
<!-- Generator: Adobe Illustrator 15.0.0, SVG Export Plug-In . SVG Version: 6.00 Build 0)  -->
<!DOCTYPE svg PUBLIC "-//W3C//DTD SVG 1.1//EN" "http://www.w3.org/Graphics/SVG/1.1/DTD/svg11.dtd">
<svg version="1.1" id="Layer_1" xmlns="http://www.w3.org/2000/svg" xmlns:xlink="http://www.w3.org/1999/xlink" x="0px" y="0px"
	 width="670px" height="361.667px" viewBox="-146.5 51.5 670 361.667" enable-background="new -146.5 51.5 670 361.667"
	 xml:space="preserve">
<g>
	<path fill="#05526D" d="M276.361,135.129c3.854-4.02,6.722-8.743,8.483-13.875c-26.848,0-53.326,0-71.651,0
		c1.71,4.981,4.458,9.587,8.13,13.522l-0.377,0.353H276.361z"/>
	<path fill="#05526D" d="M388.379,121.254c-1.776,0-49.393,0-97.657,0c-1.469,4.993-3.832,9.684-7.009,13.875h20.434v6.157H193.888
		v-6.157h20.438c-3.17-4.19-5.531-8.887-7.003-13.875c-11.431,0-18.473,0-18.473,0s-23.786,0-29.663,0s-30.223,3.241-39.738,8.278
		c-9.515,5.037-104.102,74.997-111.658,81.434c-7.555,6.437-20.428,14.832-33.301,14.832c-12.873,0-20.708-15.392-21.828-22.107
		c-1.12-6.716,1.747-19.959,13.712-24.347c8.395-3.078,19.029-1.958,33.861-2.519c14.832-0.56,38.338-6.996,47.293-14.552
		c8.955-7.556,17.63-14.552,24.626-20.988c6.996-6.437,13.396-10.405,16.511-12.593c5.177-3.638,9.235-7.438-6.996-7.438
		s-72.479,0-89.83,0s-36.939,0-42.256,0c-5.317,0-13.522,3.801-13.522,17.513c0,13.712,0,136.003,0,144.958
		s2.329,16.953,21.638,16.953c19.309,0,163.988,0,163.988,0s228.632,0,241.224,0c12.594,0,20.989,0,29.664,0
		s14.361-6.04,14.361-14.994c0-8.955,0-145.798,0-151.955C406.938,121.254,392.016,121.254,388.379,121.254z M347.801,282.046
		c-3.245,0-5.877-2.631-5.877-5.876c0-3.246,2.632-5.877,5.877-5.877c3.246,0,5.877,2.631,5.877,5.877
		C353.678,279.415,351.047,282.046,347.801,282.046z"/>
</g>
<path fill="#05526D" d="M276.456,135.129c6.552-6.83,10.579-16.102,10.579-26.314c0-20.996-17.021-38.016-38.016-38.016
	c-20.996,0-38.017,17.021-38.017,38.016c0,10.212,4.026,19.484,10.58,26.314H276.456z"/>
<g>
	<path fill="#05526D" d="M-63.864,312.386h50.051c21.414,0,33.023,8.342,33.023,30.702c0,11.609-9.804,30.701-34.571,30.701h-48.503
		V312.386z M-32.818,355.041h7.052c7.396,0,12.298-3.783,12.298-11.867c0-6.364-2.58-9.718-10.922-9.718h-8.428V355.041z"/>
	<path fill="#05526D" d="M63.582,319.954c20.124,0,36.635,4.386,36.635,27.777c0,23.478-16.512,27.863-36.635,27.863
		c-20.21,0-36.722-4.386-36.722-27.863C26.86,324.34,43.372,319.954,63.582,319.954z M63.582,359.514
		c7.052,0,9.288-4.128,9.288-10.836s-2.236-10.75-9.288-10.75c-7.138,0-9.374,4.042-9.374,10.75S56.443,359.514,63.582,359.514z"/>
	<path fill="#05526D" d="M109.843,321.76h26.917v10.148h0.172c5.16-6.88,11.954-10.922,23.22-10.922
		c10.664,0,23.306,2.493,23.306,19.436v33.367h-29.154v-24.166c0-6.277-2.494-8.342-7.482-8.342c-4.815,0-7.826,2.064-7.826,6.622
		v25.886h-29.153V321.76z"/>
	<path fill="#05526D" d="M237.719,367.684h-0.173c-3.268,6.363-11.867,7.911-18.747,7.911c-19.006,0-27.348-9.374-27.348-27.434
		c0-17.285,7.568-27.175,26.144-27.175c8.084,0,15.308,1.806,19.951,8.6h0.173v-7.826h28.379v52.029h-28.379V367.684z
		 M219.831,350.397c0,7.138,3.268,10.147,9.373,10.147c6.106,0,9.374-3.01,9.374-10.147c0-7.567-3.268-10.664-9.374-10.664
		C223.099,339.733,219.831,342.83,219.831,350.397z"/>
	<path fill="#05526D" d="M280.454,342.228h-8.943v-9.718c7.825-6.364,15.479-13.244,21.757-20.124h16.856v10.406h20.295v19.436
		h-19.693v12.556c0,4.3,3.44,4.73,6.966,4.73c2.838,0,7.31-0.431,9.804-1.032l-3.697,15.05c-5.074,0.945-13.502,2.063-23.822,2.063
		c-14.189,0-19.521-3.096-19.521-13.157V342.228z"/>
	<path fill="#05526D" d="M367.996,353.924c0,6.449,5.16,7.396,12.814,7.396c7.31,0,16.684-1.978,27.863-4.3l-6.021,14.275
		c-11.008,2.752-22.445,4.3-30.443,4.3c-20.123,0-35.259-4.901-35.259-26.745c0-18.49,12.556-28.896,35.259-28.896
		c29.67,0,36.808,8.6,36.808,29.411v4.559H367.996z M384.766,341.367c0-5.418-2.407-8.17-8.514-8.17c-5.59,0-9.115,2.236-9.46,8.17
		H384.766z"/>
</g>
</svg>
