<?xml version="1.0" encoding="utf-8"?>
<!-- Generator: Adobe Illustrator 15.0.0, SVG Export Plug-In . SVG Version: 6.00 Build 0)  -->
<!DOCTYPE svg PUBLIC "-//W3C//DTD SVG 1.1//EN" "http://www.w3.org/Graphics/SVG/1.1/DTD/svg11.dtd">
<svg version="1.1" id="Layer_1" xmlns="http://www.w3.org/2000/svg" xmlns:xlink="http://www.w3.org/1999/xlink" x="0px" y="0px"
	 width="400px" height="400px" viewBox="0 0 400 400" enable-background="new 0 0 400 400" xml:space="preserve">
<path fill="#04526D" d="M316.183,172.653c-13.4,0-14.661-16.53-14.776-18.603H301.4c-0.459-19.555-16.509-40.319-36.172-40.319
	H56.605c-19.95,0-36.181,21.23-36.181,41.181v91.132c0,19.95,16.23,41.181,36.181,41.181h208.623
	c19.729,0,35.82-20.87,36.176-40.516l0.006-0.002c0-1.176,0.422-16.405,14.772-16.405l50.756-0.052V172.5L316.183,172.653z
	 M316.183,220.302c-19.023,0-24.458,18.197-24.759,25.742h-0.014c0,14.437-11.745,31.181-26.182,31.181H56.605
	c-14.437,0-26.181-16.744-26.181-31.181v-91.132c0-14.437,11.744-31.181,26.181-31.181h208.623
	c14.437,0,26.182,16.744,26.182,31.181h0.028c0.505,7.789,6.22,27.741,24.744,27.741h22.879v37.648H316.183z"/>
<polygon fill="#04526D" points="380.334,223 331.25,220.417 331.25,182.341 380.334,178.05 "/>
<path fill="#04526D" d="M352.666,230.264c0,2.339,1.896,4.235,4.234,4.235h5.803c2.34,0,4.235-1.896,4.235-4.235l0,0
	c0-2.338-1.896-4.234-4.235-4.234H356.9C354.562,226.029,352.666,227.926,352.666,230.264L352.666,230.264z"/>
<path fill="#04526D" d="M352.666,172.264c0,2.339,1.896,4.235,4.234,4.235h5.803c2.34,0,4.235-1.896,4.235-4.235l0,0
	c0-2.338-1.896-4.234-4.235-4.234H356.9C354.562,168.029,352.666,169.926,352.666,172.264L352.666,172.264z"/>
<rect x="68.5" y="140" fill="none" stroke="#04526D" stroke-width="9" stroke-linejoin="round" stroke-miterlimit="10" width="184.5" height="123"/>
<path fill="#04526D" d="M160.75,221.834c-1.027,0-2.055-0.351-2.891-1.052l-92.25-77.334l5.781-6.896l89.359,74.91l89.359-74.91
	l5.781,6.896l-92.25,77.334C162.805,221.483,161.777,221.834,160.75,221.834z"/>
<rect x="171.954" y="225.962" transform="matrix(0.7667 0.642 -0.642 0.7667 198.7823 -86.0807)" fill="#04526D" width="91.749" height="9"/>
<rect x="98.779" y="185.431" transform="matrix(0.642 0.7667 -0.7667 0.642 213.9364 3.4461)" fill="#04526D" width="9" height="90.722"/>
</svg>
