<?xml version="1.0" encoding="utf-8"?>
<!-- Generator: Adobe Illustrator 15.0.0, SVG Export Plug-In . SVG Version: 6.00 Build 0)  -->
<!DOCTYPE svg PUBLIC "-//W3C//DTD SVG 1.1//EN" "http://www.w3.org/Graphics/SVG/1.1/DTD/svg11.dtd">
<svg version="1.1" id="Layer_1" xmlns="http://www.w3.org/2000/svg" xmlns:xlink="http://www.w3.org/1999/xlink" x="0px" y="0px"
	 width="40px" height="40px" viewBox="0 0 40 40" enable-background="new 0 0 40 40" xml:space="preserve">
	<g transform="scale(.1)">
<path fill="#04526D" d="M282.612,147.537c0-45.625-36.987-82.612-82.612-82.612c-45.626,0-82.612,36.987-82.612,82.612
	c0,11.328,2.284,22.121,6.411,31.95l3.455,7.224c0.15,0.277,0.309,0.55,0.461,0.824l72.521,129.64l71.454-128.589
	c0.385-0.671,0.762-1.347,1.128-2.028l3.372-7.07c1.459-3.476,2.701-7.063,3.68-10.761
	C281.658,161.964,282.612,154.862,282.612,147.537z M200,177.017c-19.693,0-35.658-15.965-35.658-35.658
	s15.965-35.657,35.658-35.657s35.657,15.964,35.657,35.657S219.693,177.017,200,177.017z"/></g>
</svg>
