<?xml version="1.0" encoding="UTF-8" standalone="no"?>
<!-- Generator: Adobe Illustrator 15.0.0, SVG Export Plug-In . SVG Version: 6.00 Build 0)  -->

<svg
   xmlns:dc="http://purl.org/dc/elements/1.1/"
   xmlns:cc="http://creativecommons.org/ns#"
   xmlns:rdf="http://www.w3.org/1999/02/22-rdf-syntax-ns#"
   xmlns:svg="http://www.w3.org/2000/svg"
   xmlns="http://www.w3.org/2000/svg"
   xmlns:sodipodi="http://sodipodi.sourceforge.net/DTD/sodipodi-0.dtd"
   xmlns:inkscape="http://www.inkscape.org/namespaces/inkscape"
   version="1.1"
   id="Layer_1"
   x="0px"
   y="0px"
   width="504"
   height="124"
   viewBox="-146.5 51.5 504 124"
   enable-background="new -146.5 51.5 670 290"
   xml:space="preserve"
   inkscape:version="0.48.4 r9939"
   sodipodi:docname="NYC 01.svg"><metadata
     id="metadata3104"><rdf:RDF><cc:Work
         rdf:about=""><dc:format>image/svg+xml</dc:format><dc:type
           rdf:resource="http://purl.org/dc/dcmitype/StillImage" /></cc:Work></rdf:RDF></metadata><defs
     id="defs3102" /><sodipodi:namedview
     pagecolor="#ffffff"
     bordercolor="#666666"
     borderopacity="1"
     objecttolerance="10"
     gridtolerance="10"
     guidetolerance="10"
     inkscape:pageopacity="0"
     inkscape:pageshadow="2"
     inkscape:window-width="1871"
     inkscape:window-height="1056"
     id="namedview3100"
     showgrid="false"
     inkscape:zoom="1"
     inkscape:cx="327.22553"
     inkscape:cy="145"
     inkscape:window-x="49"
     inkscape:window-y="24"
     inkscape:window-maximized="1"
     inkscape:current-layer="Layer_1"
     inkscape:snap-bbox="false"
     borderlayer="true" /><g
     id="g3889"
     transform="translate(-91,-83)"><g
       id="g3886"><polygon
         points="405.95,194.948 449.765,258.491 -53.322,258.491 -9.51,194.948 -53.322,134.509 449.765,134.509 "
         id="polygon3084"
         style="fill:#727375;fill-opacity:1" /></g><g
       id="g3086"><g
         id="g3088"><path
           inkscape:connector-curvature="0"
           style="fill:#ffffff;stroke:#999999"
           id="path3090"
           d="m 138.759,241.964 -1.37,-0.051 c -0.028,-0.001 -2.865,-0.104 -6.446,-0.104 -2.102,0 -4.043,0.035 -5.771,0.104 l -1.133,0.046 -32.465,-59.387 c -0.629,2.714 -1.465,6.149 -2.418,10.071 -2.239,9.207 -5.025,20.665 -7.418,32.018 -1.183,5.678 -0.556,6.793 1.156,7.982 1.801,1.233 7.732,2.857 14.092,3.854 l 2.007,0.314 -1.366,5.123 -6.854,-0.104 c -5.431,-0.086 -9.721,-0.153 -16.053,-0.153 -5.766,0 -9.651,0.067 -14.57,0.153 l -7.273,0.119 1.047,-5.233 1.234,-0.215 c 5.997,-1.043 11.806,-2.913 13.512,-4.35 2.461,-2.052 4.056,-7.137 5.479,-12.169 l 0.356,-1.312 c 3.44,-12.646 5.335,-19.613 8.887,-35.425 0.459,-2.066 1.144,-5.948 1.144,-8.154 0,-4.193 -1.251,-6.68 -4.78,-9.503 -1.865,-1.472 -8.064,-3.424 -12.748,-4.01 l -1.83,-0.229 0.692,-5.197 h 27.956 l 0.493,1.055 c 0.402,0.862 0.679,1.355 1.03,1.98 0.344,0.612 0.733,1.307 1.325,2.491 5.844,11.251 16.542,30.559 25.137,46.072 2.235,4.034 4.357,7.865 6.264,11.318 1.972,-8.244 6.257,-26.51 9.251,-41.833 1.99,-10.322 0.5,-11.253 -1.076,-12.238 -2.741,-1.736 -6.806,-2.341 -11.512,-3.042 -0.825,-0.123 -1.671,-0.249 -2.536,-0.385 l -2.007,-0.314 1.367,-5.126 3.41,0.054 c 6.71,0.106 13.047,0.207 19.971,0.207 7.731,0 17.562,-0.235 17.661,-0.237 l 2.257,-0.055 -1.001,5.341 -1.219,0.238 c -4.361,0.851 -10.334,2.017 -12.548,4.431 -2.039,2.232 -2.945,5.781 -3.905,9.537 L 146,176.378 c -4.709,19.211 -9.357,39.303 -11.156,47.24 -0.708,3.303 -1.032,5.143 -0.002,7.389 1.501,3.347 2.257,4.652 4.265,7.722 l 0.483,0.74 -0.831,2.495 z" /></g><g
         id="g3092"><path
           id="path3094"
           d="m 219.87,241.915 h -1.499 c -3.996,0 -7.598,-0.061 -11.081,-0.119 -3.468,-0.059 -7.055,-0.118 -11.021,-0.118 -3.727,0 -7.131,0.06 -10.423,0.118 -3.309,0.059 -6.729,0.119 -10.489,0.119 h -2.089 l 0.689,-5.165 1.754,-0.328 c 3.644,-0.681 7.412,-1.383 11.088,-3.903 2.197,-1.517 3.944,-5.907 4.845,-9.511 0.92,-3.34 3.667,-14.539 4.5,-18.473 0.552,-2.481 2.218,-9.981 2.218,-16.73 0,-13.383 -6.22,-21.698 -16.232,-21.698 -7.726,0 -12.875,5.691 -15.257,9.084 l -1.009,1.437 -4.665,-2.999 0.966,-1.533 c 7.357,-11.684 16.073,-17.607 25.906,-17.607 16.329,0 22.147,13.22 22.147,25.592 0,0.472 -0.006,0.938 -0.016,1.399 5.615,-12.378 15.332,-26.873 30.03,-26.873 10.725,0 16.874,5.828 18.797,17.817 l 0.282,1.759 -5.182,0.972 -0.527,-1.465 c -1.658,-4.606 -5.114,-6.752 -10.875,-6.752 -7.639,0 -15.153,4.441 -21.729,12.844 -6.417,8.218 -10.096,21.94 -11.48,27.106 l -0.075,0.281 c -1.149,4.365 -2.938,12.691 -3.41,15.404 -1.47,8.084 -0.481,9.52 0.657,10.298 1.465,1.058 6.424,2.507 12.377,3.634 l 1.815,0.344 -1.012,5.066 z"
           inkscape:connector-curvature="0"
           style="fill:#ffffff" /></g><g
         id="g3096"><path
           id="path3098"
           d="m 299.048,243.697 c -12.03,0 -23.02,-4.012 -30.942,-11.295 -7.488,-6.875 -11.286,-16.203 -11.286,-27.725 0,-12.741 6.212,-25.332 17.042,-34.544 11.634,-9.935 27.754,-15.407 45.386,-15.407 8.076,0 16.706,1.152 23.677,3.161 l 1.728,0.498 -7.323,27.115 -5.301,-0.936 0.128,-1.653 c 0.002,-0.03 0.232,-3.044 0.232,-4.969 0,-2.028 -0.303,-8.939 -4.195,-12.706 -1.423,-1.355 -4.939,-3.645 -12.393,-3.645 -9.08,0 -18.73,3.905 -26.479,10.714 -9.95,8.737 -15.656,20.925 -15.656,33.441 0,22.732 17.681,31.203 28.826,31.203 8.542,0 13.166,-2.873 17.481,-7.188 4.521,-4.522 9.784,-12.853 12.039,-17.041 l 0.799,-1.484 5.07,2.219 -10.109,25.206 -0.752,0.283 c -8.008,3.021 -18.205,4.753 -27.972,4.753 z"
           inkscape:connector-curvature="0"
           style="fill:#ffffff" /></g></g></g></svg>