<?xml version="1.0" encoding="utf-8"?>
<!-- Generator: Adobe Illustrator 15.0.0, SVG Export Plug-In . SVG Version: 6.00 Build 0)  -->
<!DOCTYPE svg PUBLIC "-//W3C//DTD SVG 1.1//EN" "http://www.w3.org/Graphics/SVG/1.1/DTD/svg11.dtd">
<svg version="1.1" id="Layer_1" xmlns="http://www.w3.org/2000/svg" xmlns:xlink="http://www.w3.org/1999/xlink" x="0px" y="0px"
	 width="400px" height="400px" viewBox="0 0 400 400" enable-background="new 0 0 400 400" xml:space="preserve">
<g>
	<path fill="#04526D" d="M116.634,312.394c0,15.062,12.21,27.272,27.272,27.272h112.188c15.062,0,27.272-12.21,27.272-27.272
		v-11.982H116.634V312.394z M189.874,311.154h17.355c2.054,0,3.719,1.665,3.719,3.719s-1.665,3.719-3.719,3.719h-17.355
		c-2.054,0-3.719-1.665-3.719-3.719S187.82,311.154,189.874,311.154z"/>
	<rect x="116.634" y="105.373" fill="#04526D" width="166.732" height="187.601"/>
	<path fill="#04526D" d="M256.094,60.333H143.906c-15.062,0-27.272,12.21-27.272,27.272v10.331h166.732V87.605
		C283.366,72.543,271.156,60.333,256.094,60.333z M207.229,88.431h-17.355c-2.739,0-4.958-2.22-4.958-4.958s2.22-4.958,4.958-4.958
		h17.355c2.738,0,4.959,2.22,4.959,4.958S209.967,88.431,207.229,88.431z"/>
</g>
</svg>
