<?xml version="1.0" encoding="utf-8"?>
<!-- Generator: Adobe Illustrator 15.0.0, SVG Export Plug-In . SVG Version: 6.00 Build 0)  -->
<!DOCTYPE svg PUBLIC "-//W3C//DTD SVG 1.1//EN" "http://www.w3.org/Graphics/SVG/1.1/DTD/svg11.dtd">
<svg version="1.1" id="Layer_1" xmlns="http://www.w3.org/2000/svg" xmlns:xlink="http://www.w3.org/1999/xlink" x="0px" y="0px"
	 width="379px" height="343px" viewBox="0 0 379 343" enable-background="new 0 0 379 343" xml:space="preserve">
<path fill="#07536E" d="M142.703,292c-33.671,0-65.012-9.87-91.398-26.787c4.665,0.551,9.411,0.833,14.223,0.833
	c27.934,0,53.643-9.532,74.048-25.523c-26.09-0.482-48.11-17.719-55.696-41.408c3.639,0.696,7.375,1.069,11.216,1.069
	c5.439,0,10.706-0.728,15.709-2.091c-27.277-5.477-47.828-29.576-47.828-58.464c0-0.251,0-0.501,0.004-0.75
	c8.04,4.466,17.232,7.148,27.007,7.458c-15.999-10.692-26.525-28.942-26.525-49.627c0-10.927,2.94-21.169,8.073-29.975
	c29.407,36.072,73.34,59.81,122.894,62.296c-1.016-4.364-1.545-8.915-1.545-13.587c0-32.927,26.696-59.623,59.626-59.623
	c17.148,0,32.645,7.241,43.521,18.83c13.581-2.675,26.342-7.637,37.861-14.469c-4.451,13.923-13.905,25.607-26.216,32.987
	c12.062-1.441,23.552-4.646,34.244-9.389c-7.993,11.957-18.102,22.458-29.75,30.865c0.113,2.556,0.172,5.128,0.172,7.713
	C312.343,201.148,252.372,292,142.703,292"/>
</svg>
