<?xml version="1.0" encoding="utf-8"?>
<!-- Generator: Adobe Illustrator 15.0.0, SVG Export Plug-In . SVG Version: 6.00 Build 0)  -->
<!DOCTYPE svg PUBLIC "-//W3C//DTD SVG 1.1//EN" "http://www.w3.org/Graphics/SVG/1.1/DTD/svg11.dtd">
<svg transform="scale(0.1)" version="1.1" id="Layer_1" xmlns="http://www.w3.org/2000/svg" xmlns:xlink="http://www.w3.org/1999/xlink" x="0px" y="0px"
	 width="1584px" height="1231px" viewBox="0 200 1584 1231" xml:space="preserve">
	 <g transform="scale(2)">
<path fill="#00516C" d="M333.917,497.145c0,0,33.803-168.035,34.317-181.105c0.513-13.069,3.754-20.271-7.125-33.209
	c-10.887-12.943-17.693-17.292-37.262-23.751c-59.646-19.692-92.783-69.133-104.863-84.693
	c-11.715-15.092-15.491-39.476-13.58-51.477c1.916-12.002,8.703-6.08,14.65-0.287c3.26,3.174,6.688,7.701,10.852,11.53
	c3.438,3.163,7.371,5.753,12.115,7.606c3.186,1.245,7.489-0.453,12.37-0.185c4.306,0.236,9.06,2.457,13.89,3.1
	c3.072,0.412,6.172,3.207,9.212,4.06c4.625,1.298,9.101,0.796,13.092,1.811c1.904,0.486,4.643-1.49,8-1.166
	c2.663,0.259,5.716,2.729,9.041,3.634c4.696,1.279,9.941,4.782,15.417,6.327c2.931,0.828,5.925-0.373,8.937,0.5
	c3.285,0.948,6.589,3.97,9.851,4.941c6.519,1.945,12.869-0.199,18.553,1.668c4.689,1.538,8.925,1.659,12.423,3.819
	c4.969,3.075,8.449,8.178,9.633,9.357c6.237,6.226,8.326,12.763,10.797,14.478c1.164,0.807,2.612,0,2.612,0
	c2.911-1.094,4.557-8.252,10.796-14.478c1.183-1.18,4.661-6.283,9.633-9.357c3.498-2.161,7.734-2.281,12.423-3.819
	c5.685-1.867,12.032,0.277,18.552-1.668c3.262-0.972,6.567-3.993,9.85-4.941c3.013-0.872,6.008,0.329,8.939-0.5
	c5.474-1.545,10.72-5.048,15.416-6.327c3.324-0.905,6.376-3.375,9.041-3.634c3.354-0.324,6.096,1.651,8,1.166
	c3.988-1.015,8.467-0.513,13.089-1.811c3.04-0.854,6.142-3.648,9.214-4.06c4.833-0.643,9.585-2.864,13.888-3.1
	c4.881-0.268,9.184,1.43,12.372,0.185c4.744-1.853,8.677-4.444,12.112-7.606c4.164-3.829,7.596-8.356,10.854-11.53
	c5.945-5.793,12.737-11.715,14.648,0.287c1.911,12.001-1.862,36.385-13.579,51.477c-12.081,15.56-42.849,65.001-102.492,84.693
	c-19.571,6.459-26.375,10.808-37.26,23.751c-10.882,12.938-7.641,20.14-7.13,33.209c0.516,13.07,34.257,181.105,34.257,181.105
	H333.917z"/></g>
</svg>
